<?xml version="1.0" encoding="UTF-8"?>
<svg id="b" data-name="Layer 2" xmlns="http://www.w3.org/2000/svg" viewBox="0 0 444.09 347.59">
  <g id="c" data-name="Layer 1">
    <path d="M183.69,331.87c-25.28,14.87-55.18,17.23-84.11,15-37.19-2.87-69.4-18.73-86.31-52.74-7.52-15.12-11.58-31.03-12.77-48.06-2.08-29.54,2.32-59.77,16.37-85.89,19.5-36.24,54.66-59.61,95.72-63.35,34.13-3.11,78.56.91,97.29,31.71,7.42,12.21,9.91,25.39,9.45,40.52l-59.2,11.92c-.33-20.01,2.17-37.85-6.83-54.67-6.49-12.13-18.81-17.14-32.32-15.08-23.38,3.58-35.1,26.84-38.38,49.69-4.08,28.48-3.46,57.25,2.41,85.46,3.39,16.3,10.09,31.07,20.29,43.59,12.82,15.74,30.78,23.07,50.84,22.78,18.48-.27,35.14-7.02,47.28-21.23,9.98-11.68,17.21-25.03,22.03-39.85,5.13-15.77,8.6-31.28,11.31-47.75l12.88-78.28-32.51-.12v-13.18s34.47.04,34.47.04C262.63,54.2,303.2,6.9,364.59.86l22.52-.8c22.35-.79,56,6.54,56.66,30.63l.32,11.59-52.14,8.39c1.14-17.73,2.59-37.19-14.82-37.59-34.21-.8-46.99,45.69-48.18,76.3l-.89,22.97h53.07s-.05,13.2-.05,13.2l-52.97-.05.12,185.39c0,5.42,1.99,11.66,4.79,15.39,3.5,4.66,9.88,5.06,15.02,5.31l20.09.96-.1,11.3-150.67.03-.3-11.44c14.88-.28,31.76.43,33.42-13.74l1.35-11.5-.43-61.82-.55-26.2c-11.88,43.77-25.99,88.46-67.16,112.68Z"/>
  </g>
</svg>