<?xml version="1.0" encoding="UTF-8"?>
<svg id="b" data-name="Layer 2" xmlns="http://www.w3.org/2000/svg" viewBox="0 0 1162.29 239.01">
  <g id="c" data-name="Layer 1">
    <path d="M74.21,70.53c21.66,0,39.19,4.62,52.6,13.87,13.41,9.25,20.12,23.36,20.12,42.35h-48.23c0-14.99-8.16-22.49-24.49-22.49h0c-16.33,0-24.49,9.41-24.49,28.24h0v14.24c0,18.66,8.5,27.99,25.49,27.99h0c16.99,0,25.49-7.66,25.49-22.99h46.23c0,19.16-6.71,33.4-20.12,42.73-13.41,9.33-30.94,13.99-52.6,13.99h0c-23.16,0-41.31-5.83-54.47-17.49C6.58,179.31,0,162.15,0,139.5h0c0-22.66,6.58-39.81,19.74-51.48,13.16-11.66,31.32-17.49,54.47-17.49h0ZM227.14,70.53c23.16,0,41.36,5.87,54.6,17.62s19.87,28.86,19.87,51.35h0c0,22.49-6.62,39.61-19.87,51.35s-31.44,17.62-54.6,17.62h0c-23.16,0-41.31-5.83-54.47-17.49-13.16-11.66-19.74-28.82-19.74-51.48h0c0-22.66,6.58-39.81,19.74-51.48,13.16-11.66,31.32-17.49,54.47-17.49h0ZM227.14,104.26c-16.33,0-24.49,9.41-24.49,28.24h0v14.24c0,18.66,8.16,27.99,24.49,27.99h0c16.49,0,24.74-9.33,24.74-27.99h0v-14.24c0-18.82-8.25-28.24-24.74-28.24h0ZM448.28,205.47h-40.48l-4.25-18.74c-9.66,14.49-23.66,21.74-41.98,21.74h0c-17.82,0-31.57-5.83-41.23-17.49-9.66-11.66-14.49-28.9-14.49-51.73h0c0-22.66,4.83-39.77,14.49-51.35,9.66-11.58,23.41-17.37,41.23-17.37h0c15.16,0,27.49,5.08,36.98,15.24h0V24.3h49.73v181.16ZM377.07,107.26c-14.33,0-21.49,8.58-21.49,25.74h0v13.24c0,16.99,7.16,25.49,21.49,25.49h0c7.33,0,12.83-2.58,16.49-7.75s5.5-11.91,5.5-20.24h0v-8.25c0-8.33-1.83-15.12-5.5-20.37s-9.16-7.87-16.49-7.87h0ZM516.25,58.04h-49.73V24.3h49.73v33.73ZM516.25,205.47h-49.73V73.53h49.73v131.94ZM602.46,70.53c24.16,0,42.6,5.66,55.35,16.99,12.74,11.33,19.12,28.65,19.12,51.97h0v8.5h-98.95c0,9.5,2.12,16.66,6.37,21.49,4.25,4.83,10.95,7.25,20.12,7.25h0c8.33,0,14.45-1.75,18.37-5.25s5.87-8.16,5.87-13.99h48.23c0,15.99-6.08,28.49-18.24,37.48s-29.9,13.49-53.22,13.49h0c-24.49,0-43.48-5.71-56.97-17.12-13.49-11.41-20.24-28.69-20.24-51.85h0c0-22.66,6.58-39.81,19.74-51.48,13.16-11.66,31.32-17.49,54.47-17.49h0ZM604.46,102.27c-15.66,0-24.4,7.41-26.24,22.24h48.48c0-6.83-1.96-12.24-5.87-16.24s-9.37-6-16.37-6h0Z"/>
    <path d="M662.69,0h59.75l23.9,119.51L794.15,0h87.64l-99.59,239.01h-23.9l-27.89-99.59-15.93,35.85h-15.93L662.69,0Z"/>
    <path d="M920.16,70.53c23.16,0,41.36,5.87,54.6,17.62s19.87,28.86,19.87,51.35h0c0,22.49-6.62,39.61-19.87,51.35s-31.44,17.62-54.6,17.62h0c-23.16,0-41.31-5.83-54.47-17.49-13.16-11.66-19.74-28.82-19.74-51.48h0c0-22.66,6.58-39.81,19.74-51.48,13.16-11.66,31.32-17.49,54.47-17.49h0ZM920.16,104.26c-16.33,0-24.49,9.41-24.49,28.24h0v14.24c0,18.66,8.16,27.99,24.49,27.99h0c16.49,0,24.74-9.33,24.74-27.99h0v-14.24c0-18.82-8.25-28.24-24.74-28.24h0ZM1056.34,205.47h-49.73V24.3h49.73v181.16ZM1134.31,73.53h27.99v33.73h-27.99v50.23c0,6,1,10.37,3,13.12s5.66,4.12,10.99,4.12h13.99v29.24c-4,1.33-9.16,2.42-15.49,3.25-6.33.83-11.83,1.25-16.49,1.25h0c-14.66,0-25.95-2.67-33.86-8-7.91-5.33-11.87-14.41-11.87-27.24h0v-65.97h-18.49v-33.73h20.49l10.74-39.98h36.98v39.98Z"/>
  </g>
</svg>