<?xml version="1.0" encoding="UTF-8"?>
<svg id="b" data-name="Layer 2" xmlns="http://www.w3.org/2000/svg" viewBox="0 0 214.77 195.28">
  <g id="c" data-name="Layer 1">
    <g>
      <rect x="73.09" y="53.6" width="19.87" height="19.87" style="fill: none; isolation: isolate; opacity: .35; stroke: #000; stroke-dasharray: 2.25 2.25; stroke-miterlimit: 10; stroke-width: 1.12px;"/>
      <rect x="146.18" y="53.6" width="19.87" height="19.87" style="fill: none; isolation: isolate; opacity: .35; stroke: #000; stroke-dasharray: 2.25 2.25; stroke-miterlimit: 10; stroke-width: 1.12px;"/>
      <rect y="53.6" width="19.87" height="19.87"/>
      <rect x="24.36" y="53.6" width="19.87" height="19.87"/>
      <rect x="48.73" y="53.6" width="19.87" height="19.87"/>
      <rect x="73.09" width="19.87" height="19.87"/>
      <rect x="97.45" y="53.6" width="19.87" height="19.87"/>
      <rect x="121.82" y="53.6" width="19.87" height="19.87"/>
      <rect x="146.18" y="19.49" width="19.87" height="19.87"/>
      <rect x="170.54" y="53.6" width="19.87" height="19.87"/>
      <rect x="194.91" y="53.6" width="19.87" height="19.87"/>
      <rect y="77.96" width="19.87" height="19.87"/>
      <rect x="24.36" y="77.96" width="19.87" height="19.87"/>
      <rect x="170.54" y="77.96" width="19.87" height="19.87"/>
      <rect x="194.91" y="77.96" width="19.87" height="19.87"/>
      <rect y="102.33" width="19.87" height="19.87"/>
      <rect x="48.73" y="102.33" width="19.87" height="19.87"/>
      <rect x="146.18" y="102.33" width="19.87" height="19.87"/>
      <rect x="194.91" y="102.33" width="19.87" height="19.87"/>
      <rect y="126.69" width="19.87" height="19.87"/>
      <rect x="73.09" y="126.69" width="19.87" height="19.87"/>
      <rect x="121.82" y="126.69" width="19.87" height="19.87"/>
      <rect x="194.91" y="126.69" width="19.87" height="19.87"/>
      <rect y="151.05" width="19.87" height="19.87"/>
      <rect x="97.45" y="151.05" width="19.87" height="19.87"/>
      <rect x="194.91" y="151.05" width="19.87" height="19.87"/>
      <rect y="175.41" width="19.87" height="19.87"/>
      <rect x="24.36" y="175.41" width="19.87" height="19.87"/>
      <rect x="48.73" y="175.41" width="19.87" height="19.87"/>
      <rect x="73.09" y="175.41" width="19.87" height="19.87"/>
      <rect x="97.45" y="175.41" width="19.87" height="19.87"/>
      <rect x="121.82" y="175.41" width="19.87" height="19.87"/>
      <rect x="146.18" y="175.41" width="19.87" height="19.87"/>
      <rect x="170.54" y="175.41" width="19.87" height="19.87"/>
      <rect x="194.91" y="175.41" width="19.87" height="19.87"/>
    </g>
  </g>
</svg>